mtllib model_21.mtl
o model_21
v -3.3817291259765625 -0.6869021058082581 -2.0424866676330566 
v -3.3817291259765625 -0.5703942179679871 -2.0424866676330566 
v -3.631293773651123 -0.6429368853569031 -2.0424866676330566 
v -3.631293773651123 -0.5703942179679871 -2.0424866676330566 
v -3.1282031536102295 -0.5703942179679871 -2.0424866676330566 
v -3.3817291259765625 -0.5703942179679871 -2.0424866676330566 
v -3.1282031536102295 -0.6429368853569031 -2.0424866676330566 
v -3.3817291259765625 -0.6869021058082581 -2.0424866676330566 
v -3.631293773651123 -0.5703942179679871 -2.0424866676330566 
v -3.3817291259765625 -0.5703942179679871 -2.0424866676330566 
v -3.631293773651123 -0.49785155057907104 -2.0424866676330566 
v -3.3817291259765625 -0.4516880512237549 -2.0424866676330566 
v -3.3817291259765625 -0.4516880512237549 -2.0424866676330566 
v -3.3817291259765625 -0.5703942179679871 -2.0424866676330566 
v -3.1282031536102295 -0.49785155057907104 -2.0424866676330566 
v -3.1282031536102295 -0.5703942179679871 -2.0424866676330566 
v -3.302502393722534 -0.5681959390640259 -2.030194044113159 
v -3.302502393722534 -0.4121193587779999 -2.030194044113159 
v -3.536221504211426 -0.5681959390640259 -2.030194044113159 
v -3.536221504211426 -0.4121193587779999 -2.030194044113159 
v -3.243082046508789 -0.6495316624641418 -2.0377438068389893 
v -3.243082046508789 -0.5747907757759094 -2.0377438068389893 
v -3.29457950592041 -0.6539281606674194 -2.0377438068389893 
v -3.29457950592041 -0.5747907757759094 -2.0377438068389893 
v -3.243082046508789 -0.6912986636161804 -2.0377438068389893 
v -3.243082046508789 -0.6495316624641418 -2.0377438068389893 
v -3.29457950592041 -0.6912986636161804 -2.0377438068389893 
v -3.29457950592041 -0.6539281606674194 -2.0377438068389893 
v -3.243082046508789 -0.6495316624641418 -2.0377438068389893 
v -3.2193140983581543 -0.6847038269042969 -2.0377438068389893 
v -3.243082046508789 -0.5747907757759094 -2.0377438068389893 
v -3.2193140983581543 -0.6099629402160645 -2.0377438068389893 
v -3.140087366104126 -0.5747907757759094 -2.0377438068389893 
v -3.1955461502075195 -0.5747907757759094 -2.0377438068389893 
v -3.140087366104126 -0.6539281606674194 -2.0377438068389893 
v -3.191584825515747 -0.6495316624641418 -2.0377438068389893 
v -3.140087366104126 -0.6539281606674194 -2.0377438068389893 
v -3.191584825515747 -0.6495316624641418 -2.0377438068389893 
v -3.140087366104126 -0.6912986636161804 -2.0377438068389893 
v -3.191584825515747 -0.6912986636161804 -2.0377438068389893 
v -3.2193140983581543 -0.6099629402160645 -2.0377438068389893 
v -3.2193140983581543 -0.6847038269042969 -2.0377438068389893 
v -3.1955461502075195 -0.5747907757759094 -2.0377438068389893 
v -3.191584825515747 -0.6495316624641418 -2.0377438068389893 
vn 0 0 9.059202194213867 
vn 0 0 9.059202194213867 
vn 0 0 9.059202194213867 
vn 0 0 9.059202194213867 
vn 0 0 9.059202194213867 
vn 0 0 9.059202194213867 
vn 0 0 9.059202194213867 
vn 0 0 9.059202194213867 
vn 0 0 9.059202194213867 
vn 0 0 9.059202194213867 
vn 0 0 9.059202194213867 
vn 0 0 9.059202194213867 
vn 0 0 9.059202194213867 
vn 0 0 9.059202194213867 
vn 0 0 9.059202194213867 
vn 0 0 9.059202194213867 
vn 0 0 9.059202194213867 
vn 0 0 9.059202194213867 
vn 0 0 9.059202194213867 
vn 0 0 9.059202194213867 
vn 0 0 9.059202194213867 
vn 0 0 9.059202194213867 
vn 0 0 9.059202194213867 
vn 0 0 9.059202194213867 
vn 0 0 9.059202194213867 
vn 0 0 9.059202194213867 
vn 0 0 9.059202194213867 
vn 0 0 9.059202194213867 
vn 0 0 9.059202194213867 
vn 0 0 9.059202194213867 
vn 0 0 9.059202194213867 
vn 0 0 9.059202194213867 
vn 0 0 9.059202194213867 
vn 0 0 9.059202194213867 
vn 0 0 9.059202194213867 
vn 0 0 9.059202194213867 
vn 0 0 9.059202194213867 
vn 0 0 9.059202194213867 
vn 0 0 9.059202194213867 
vn 0 0 9.059202194213867 
vn 0 0 9.059202194213867 
vn 0 0 9.059202194213867 
vn 0 0 9.059202194213867 
vn 0 0 9.059202194213867 
vt 0.1960349977016449 0.4993464946746826 
vt 0.27994227409362793 0.4993464946746826 
vt 0.2276998907327652 0.9457312226295471 
vt 0.27994227409362793 0.9457312226295471 
vt 0.27994227409362793 0.05284624546766281 
vt 0.27994227409362793 0.4993464946746826 
vt 0.2276998907327652 0.05284624546766281 
vt 0.1960349977016449 0.4993464946746826 
vt 0.27994227409362793 0.9457312226295471 
vt 0.27994227409362793 0.4993464946746826 
vt 0.33209067583084106 0.9457312226295471 
vt 0.3638495206832886 0.4993464946746826 
vt 0.3638495206832886 0.4993464946746826 
vt 0.27994227409362793 0.4993464946746826 
vt 0.33209067583084106 0.05284624546766281 
vt 0.27994227409362793 0.05284624546766281 
vt 0.9323141574859619 0.473931223154068 
vt 0.9323141574859619 0.8594347834587097 
vt 0.5677450895309448 0.473931223154068 
vt 0.5677450895309448 0.8594347834587097 
vt 0.7346200346946716 0.15277449786663055 
vt 0.7365931868553162 0.41871073842048645 
vt 0.6166988611221313 0.1305938959121704 
vt 0.6166988611221313 0.41871073842048645 
vt 0.7346200346946716 -0.000525843002833426 
vt 0.7346200346946716 0.15277449786663055 
vt 0.6166988611221313 -0.000525843002833426 
vt 0.6166988611221313 0.1305938959121704 
vt 0.7346200346946716 0.15277449786663055 
vt 0.7911846041679382 0.022578956559300423 
vt 0.7365931868553162 0.41871073842048645 
vt 0.7911846041679382 0.2933672070503235 
vt 0.9656703472137451 0.41871073842048645 
vt 0.8457760214805603 0.41871073842048645 
vt 0.9656703472137451 0.1305938959121704 
vt 0.8478431701660156 0.15277449786663055 
vt 0.9656703472137451 0.1305938959121704 
vt 0.8478431701660156 0.15277449786663055 
vt 0.9656703472137451 -0.000525843002833426 
vt 0.8478431701660156 -0.000525843002833426 
vt 0.7911846041679382 0.2933672070503235 
vt 0.7911846041679382 0.022578956559300423 
vt 0.8457760214805603 0.41871073842048645 
vt 0.8478431701660156 0.15277449786663055 
s on 
f 1/1/1 2/2/2 3/3/3 
f 2/2/2 4/4/4 3/3/3 
f 3/3/3 4/4/4 4/4/4 
f 4/4/4 5/5/5 4/4/4 
f 4/4/4 5/5/5 5/5/5 
f 5/5/5 6/6/6 5/5/5 
f 5/5/5 6/6/6 7/7/7 
f 6/6/6 8/8/8 7/7/7 
f 7/7/7 8/8/8 8/8/8 
f 8/8/8 9/9/9 8/8/8 
f 8/8/8 9/9/9 9/9/9 
f 9/9/9 10/10/10 9/9/9 
f 9/9/9 10/10/10 11/11/11 
f 10/10/10 12/12/12 11/11/11 
f 11/11/11 12/12/12 12/12/12 
f 12/12/12 13/13/13 12/12/12 
f 12/12/12 13/13/13 13/13/13 
f 13/13/13 14/14/14 13/13/13 
f 13/13/13 14/14/14 15/15/15 
f 14/14/14 16/16/16 15/15/15 
f 15/15/15 16/16/16 16/16/16 
f 16/16/16 17/17/17 16/16/16 
f 16/16/16 17/17/17 17/17/17 
f 17/17/17 18/18/18 17/17/17 
f 17/17/17 18/18/18 19/19/19 
f 18/18/18 20/20/20 19/19/19 
f 19/19/19 20/20/20 20/20/20 
f 20/20/20 21/21/21 20/20/20 
f 20/20/20 21/21/21 21/21/21 
f 21/21/21 22/22/22 21/21/21 
f 21/21/21 22/22/22 23/23/23 
f 22/22/22 24/24/24 23/23/23 
f 23/23/23 24/24/24 24/24/24 
f 24/24/24 25/25/25 24/24/24 
f 24/24/24 25/25/25 25/25/25 
f 25/25/25 26/26/26 25/25/25 
f 25/25/25 26/26/26 27/27/27 
f 26/26/26 28/28/28 27/27/27 
f 27/27/27 28/28/28 28/28/28 
f 28/28/28 29/29/29 28/28/28 
f 28/28/28 29/29/29 29/29/29 
f 29/29/29 30/30/30 29/29/29 
f 29/29/29 30/30/30 31/31/31 
f 30/30/30 32/32/32 31/31/31 
f 31/31/31 32/32/32 32/32/32 
f 32/32/32 33/33/33 32/32/32 
f 32/32/32 33/33/33 33/33/33 
f 33/33/33 34/34/34 33/33/33 
f 33/33/33 34/34/34 35/35/35 
f 34/34/34 36/36/36 35/35/35 
f 35/35/35 36/36/36 36/36/36 
f 36/36/36 37/37/37 36/36/36 
f 36/36/36 37/37/37 37/37/37 
f 37/37/37 38/38/38 37/37/37 
f 37/37/37 38/38/38 39/39/39 
f 38/38/38 40/40/40 39/39/39 
f 39/39/39 40/40/40 40/40/40 
f 40/40/40 41/41/41 40/40/40 
f 40/40/40 41/41/41 41/41/41 
f 41/41/41 42/42/42 41/41/41 
f 41/41/41 42/42/42 43/43/43 
f 42/42/42 44/44/44 43/43/43 

