mtllib model_23.mtl
o model_23
v 3.6067395210266113 -1.3928899765014648 3.310528516769409 
v 3.6067395210266113 -1.3928899765014648 -4.454036235809326 
v -4.157824993133545 -1.3928899765014648 3.310528516769409 
v -4.157824993133545 -1.3928899765014648 -4.454036235809326 
vn -2.663667727955798e-14 0.25757932662963867 0.0005627333885058761 
vn -2.663667727955798e-14 0.25757932662963867 0.0005627333885058761 
vn -2.663667727955798e-14 0.25757932662963867 0.0005627333885058761 
vn -2.663667727955798e-14 0.25757932662963867 0.0005627333885058761 
s on 
f 1//1 2//2 3//3 
f 2//2 4//4 3//3 

