mtllib model_26.mtl
o model_26
v 0.36153435707092285 -0.9228270053863525 1.4208425283432007 
v -0.5737245678901672 -0.9228270053863525 1.3912780284881592 
v 0.3028649687767029 -0.9228270053863525 1.8120031356811523 
v -0.5737245678901672 -0.9228270053863525 1.8120031356811523 
v 0.3028649687767029 -0.9228270053863525 2.228179931640625 
v -0.5737245678901672 -0.9228270053863525 2.228179931640625 
v 0.3028649687767029 -0.9228270053863525 2.5875020027160645 
v -0.5737245678901672 -0.9228270053863525 2.5875020027160645 
v -1.1362603902816772 -0.9228270053863525 2.228179931640625 
v -1.1362603902816772 -0.9228270053863525 2.5875020027160645 
v 0.5133845210075378 -0.9228270053863525 1.8120031356811523 
v 0.5133845210075378 -0.9228270053863525 2.228179931640625 
v -1.1362603902816772 -0.9228270053863525 1.8120031356811523 
v -2.123286485671997 -0.9228270053863525 1.8120031356811523 
v -2.0784215927124023 -0.9228270053863525 2.228179931640625 
v -2.037008047103882 -0.9228270053863525 2.5875020027160645 
v -1.9196691513061523 -0.9228270053863525 4.133951187133789 
v -2.682371139526367 -0.9228270053863525 3.5904197692871094 
v -3.1379215717315674 -0.9228270053863525 2.5875020027160645 
v -3.2242000102996826 -0.9228270053863525 2.228179931640625 
v -3.3277342319488525 -0.9228270053863525 1.8120031356811523 
v -3.3449900150299072 -0.9228270053863525 1.3912780284881592 
v -2.1301887035369873 -0.9228270053863525 1.3912780284881592 
v -2.8238677978515625 -0.9228270053863525 0.26555395126342773 
v -1.9852408170700073 -0.9228270053863525 0.5793921947479248 
v -1.1362603902816772 -0.9228270053863525 1.3912780284881592 
v -1.1362603902816772 -0.9228270053863525 0.5793921947479248 
v -0.5737245678901672 -0.9228270053863525 0.5793921947479248 
v -1.1776740550994873 -0.9228270053863525 4.058902740478516 
v 0.5133845210075378 -0.9228270053863525 2.5875020027160645 
v 0.3097672462463379 -0.9228270053863525 3.8655967712402344 
v 0.6583324074745178 -0.9228270053863525 3.840580701828003 
v 1.5625311136245728 -0.9228270053863525 2.5875020027160645 
v 1.5625311136245728 -0.9228270053863525 3.6654679775238037 
v 1.966314435005188 -0.9228270053863525 3.6654679775238037 
v 1.624651551246643 -0.9228270053863525 2.5875020027160645 
v 2.7669789791107178 -0.9228270053863525 3.3539040088653564 
v 2.584068536758423 -0.9228270053863525 2.5875020027160645 
v 3.7194936275482178 -0.9228270053863525 3.3539040088653564 
v 3.7194936275482178 -0.9228270053863525 2.5875020027160645 
v 2.584068536758423 -0.9228270053863525 2.228179931640625 
v 3.7194936275482178 -0.9228270053863525 2.228179931640625 
v 3.7194936275482178 -0.9228270053863525 1.8915997743606567 
v 2.584068536758423 -0.9228270053863525 1.8915997743606567 
v 3.7194936275482178 -0.9228270053863525 1.555019736289978 
v 2.584068536758423 -0.9228270053863525 1.555019736289978 
v 3.7194936275482178 -0.9228270053863525 1.2184395790100098 
v 2.584068536758423 -0.9228270053863525 1.2184395790100098 
v 2.1009089946746826 -0.9228270053863525 1.491342306137085 
v 2.062946319580078 -0.9228270053863525 1.8529385328292847 
v 2.0940065383911133 -0.9228270053863525 2.228179931640625 
v 1.5625311136245728 -0.9228270053863525 2.228179931640625 
v 1.541824221611023 -0.9228270053863525 1.8120031356811523 
v 1.6177493333816528 -0.9228270053863525 1.4276649951934814 
v 0.596211850643158 -0.9228270053863525 1.4276649951934814 
v -0.5737245678901672 -0.9228270053863525 2.5875020027160645 
v 0.3028649687767029 -0.9228270053863525 2.5875020027160645 
v -0.35285162925720215 -0.9228270053863525 4.2271928787231445 
v 0.3097672462463379 -0.9228270053863525 3.8655967712402344 
v -1.1362603902816772 -0.9228270053863525 2.5875020027160645 
v -0.5737245678901672 -0.9228270053863525 2.5875020027160645 
v -1.1776740550994873 -0.9228270053863525 4.058902740478516 
v -0.35285162925720215 -0.9228270053863525 4.2271928787231445 
v 1.862780213356018 -0.9228270053863525 0.4520375430583954 
v 0.6824904084205627 -0.9228270053863525 0.5611986517906189 
v 1.862780213356018 -0.9228270053863525 -0.4280740022659302 
v 0.6824904084205627 -0.9228270053863525 -0.4280740022659302 
v 0.6824904084205627 -0.9228270053863525 0.5611986517906189 
v 1.862780213356018 -0.9228270053863525 0.4520375430583954 
v 0.596211850643158 -0.9228270053863525 1.4276649951934814 
v 1.6177493333816528 -0.9228270053863525 1.4276649951934814 
v 0.596211850643158 -0.9228270053863525 1.4276649951934814 
v 0.36153435707092285 -0.9228270053863525 1.4208425283432007 
v 0.6824904084205627 -0.9228270053863525 0.5611986517906189 
v 0.5271890759468079 -0.9228270053863525 0.5657470226287842 
v 0.36153435707092285 -0.9228270053863525 1.4208425283432007 
v -0.5737245678901672 -0.9228270053863525 1.3912780284881592 
v 0.5271890759468079 -0.9228270053863525 0.5657470226287842 
v -0.5737245678901672 -0.9228270053863525 0.5793921947479248 
v 0.596211850643158 -0.9228270053863525 1.4276649951934814 
v 0.5133845210075378 -0.9228270053863525 1.8120031356811523 
v 0.36153435707092285 -0.9228270053863525 1.4208425283432007 
v 0.3028649687767029 -0.9228270053863525 1.8120031356811523 
v 2.584068536758423 -0.9228270053863525 1.555019736289978 
v 2.1009089946746826 -0.9228270053863525 1.491342306137085 
v 2.584068536758423 -0.9228270053863525 1.2184395790100098 
v 2.197540760040283 -0.9228270053863525 0.8341014385223389 
v 2.062946319580078 -0.9228270053863525 1.8529385328292847 
v 1.541824221611023 -0.9228270053863525 1.8120031356811523 
v 2.1009089946746826 -0.9228270053863525 1.491342306137085 
v 1.6177493333816528 -0.9228270053863525 1.4276649951934814 
v 2.1009089946746826 -0.9228270053863525 1.491342306137085 
v 1.6177493333816528 -0.9228270053863525 1.4276649951934814 
v 2.197540760040283 -0.9228270053863525 0.8341014385223389 
v 1.862780213356018 -0.9228270053863525 0.4520375430583954 
vn -1.0341130485562108e-13 0.999997615814209 0.002184694167226553 
vn -1.0341130485562108e-13 0.999997615814209 0.002184694167226553 
vn -1.0341130485562108e-13 0.999997615814209 0.002184694167226553 
vn -1.0341130485562108e-13 0.999997615814209 0.002184694167226553 
vn -1.0341130485562108e-13 0.999997615814209 0.002184694167226553 
vn -1.0341130485562108e-13 0.999997615814209 0.002184694167226553 
vn -1.0341130485562108e-13 0.999997615814209 0.002184694167226553 
vn -1.0341130485562108e-13 0.999997615814209 0.002184694167226553 
vn -1.0341130485562108e-13 0.999997615814209 0.002184694167226553 
vn -1.0341130485562108e-13 0.999997615814209 0.002184694167226553 
vn -1.0341130485562108e-13 0.999997615814209 0.002184694167226553 
vn -1.0341130485562108e-13 0.999997615814209 0.002184694167226553 
vn -1.0341130485562108e-13 0.999997615814209 0.002184694167226553 
vn -1.0341130485562108e-13 0.999997615814209 0.002184694167226553 
vn -1.0341130485562108e-13 0.999997615814209 0.002184694167226553 
vn -1.0341130485562108e-13 0.999997615814209 0.002184694167226553 
vn -1.0341130485562108e-13 0.999997615814209 0.002184694167226553 
vn -1.0341130485562108e-13 0.999997615814209 0.002184694167226553 
vn -1.0341130485562108e-13 0.999997615814209 0.002184694167226553 
vn -1.0341130485562108e-13 0.999997615814209 0.002184694167226553 
vn -1.0341130485562108e-13 0.999997615814209 0.002184694167226553 
vn -1.0341130485562108e-13 0.999997615814209 0.002184694167226553 
vn -1.0341130485562108e-13 0.999997615814209 0.002184694167226553 
vn -1.0341130485562108e-13 0.999997615814209 0.002184694167226553 
vn -1.0341130485562108e-13 0.999997615814209 0.002184694167226553 
vn -1.0341130485562108e-13 0.999997615814209 0.002184694167226553 
vn -1.0341130485562108e-13 0.999997615814209 0.002184694167226553 
vn -1.0341130485562108e-13 0.999997615814209 0.002184694167226553 
vn -1.0341130485562108e-13 0.999997615814209 0.002184694167226553 
vn -1.0341130485562108e-13 0.999997615814209 0.002184694167226553 
vn -1.0341130485562108e-13 0.999997615814209 0.002184694167226553 
vn -1.0341130485562108e-13 0.999997615814209 0.002184694167226553 
vn -1.0341130485562108e-13 0.999997615814209 0.002184694167226553 
vn -1.0341130485562108e-13 0.999997615814209 0.002184694167226553 
vn -1.0341130485562108e-13 0.999997615814209 0.002184694167226553 
vn -1.0341130485562108e-13 0.999997615814209 0.002184694167226553 
vn -1.0341130485562108e-13 0.999997615814209 0.002184694167226553 
vn -1.0341130485562108e-13 0.999997615814209 0.002184694167226553 
vn -1.0341130485562108e-13 0.999997615814209 0.002184694167226553 
vn -1.0341130485562108e-13 0.999997615814209 0.002184694167226553 
vn -1.0341130485562108e-13 0.999997615814209 0.002184694167226553 
vn -1.0341130485562108e-13 0.999997615814209 0.002184694167226553 
vn -1.0341130485562108e-13 0.999997615814209 0.002184694167226553 
vn -1.0341130485562108e-13 0.999997615814209 0.002184694167226553 
vn -1.0341130485562108e-13 0.999997615814209 0.002184694167226553 
vn -1.0341130485562108e-13 0.999997615814209 0.002184694167226553 
vn -1.0341130485562108e-13 0.999997615814209 0.002184694167226553 
vn -1.0341130485562108e-13 0.999997615814209 0.002184694167226553 
vn -1.0341130485562108e-13 0.999997615814209 0.002184694167226553 
vn -1.0341130485562108e-13 0.999997615814209 0.002184694167226553 
vn -1.0341130485562108e-13 0.999997615814209 0.002184694167226553 
vn -1.0341130485562108e-13 0.999997615814209 0.002184694167226553 
vn -1.0341130485562108e-13 0.999997615814209 0.002184694167226553 
vn -1.0341130485562108e-13 0.999997615814209 0.002184694167226553 
vn -1.0341130485562108e-13 0.999997615814209 0.002184694167226553 
vn -1.0341130485562108e-13 0.999997615814209 0.002184694167226553 
vn -1.0341130485562108e-13 0.999997615814209 0.002184694167226553 
vn -1.0341130485562108e-13 0.999997615814209 0.002184694167226553 
vn -1.0341130485562108e-13 0.999997615814209 0.002184694167226553 
vn -1.0341130485562108e-13 0.999997615814209 0.002184694167226553 
vn -1.0341130485562108e-13 0.999997615814209 0.002184694167226553 
vn -1.0341130485562108e-13 0.999997615814209 0.002184694167226553 
vn -1.0341130485562108e-13 0.999997615814209 0.002184694167226553 
vn -1.0341130485562108e-13 0.999997615814209 0.002184694167226553 
vn -1.0341130485562108e-13 0.999997615814209 0.002184694167226553 
vn -1.0341130485562108e-13 0.999997615814209 0.002184694167226553 
vn -1.0341130485562108e-13 0.999997615814209 0.002184694167226553 
vn -1.0341130485562108e-13 0.999997615814209 0.002184694167226553 
vn -1.0341130485562108e-13 0.999997615814209 0.002184694167226553 
vn -1.0341130485562108e-13 0.999997615814209 0.002184694167226553 
vn -1.0341130485562108e-13 0.999997615814209 0.002184694167226553 
vn -1.0341130485562108e-13 0.999997615814209 0.002184694167226553 
vn -1.0341130485562108e-13 0.999997615814209 0.002184694167226553 
vn -1.0341130485562108e-13 0.999997615814209 0.002184694167226553 
vn -1.0341130485562108e-13 0.999997615814209 0.002184694167226553 
vn -1.0341130485562108e-13 0.999997615814209 0.002184694167226553 
vn -1.0341130485562108e-13 0.999997615814209 0.002184694167226553 
vn -1.0341130485562108e-13 0.999997615814209 0.002184694167226553 
vn -1.0341130485562108e-13 0.999997615814209 0.002184694167226553 
vn -1.0341130485562108e-13 0.999997615814209 0.002184694167226553 
vn -1.0341130485562108e-13 0.999997615814209 0.002184694167226553 
vn -1.0341130485562108e-13 0.999997615814209 0.002184694167226553 
vn -1.0341130485562108e-13 0.999997615814209 0.002184694167226553 
vn -1.0341130485562108e-13 0.999997615814209 0.002184694167226553 
vn -1.0341130485562108e-13 0.999997615814209 0.002184694167226553 
vn -1.0341130485562108e-13 0.999997615814209 0.002184694167226553 
vn -1.0341130485562108e-13 0.999997615814209 0.002184694167226553 
vn -1.0341130485562108e-13 0.999997615814209 0.002184694167226553 
vn -1.0341130485562108e-13 0.999997615814209 0.002184694167226553 
vn -1.0341130485562108e-13 0.999997615814209 0.002184694167226553 
vn -1.0341130485562108e-13 0.999997615814209 0.002184694167226553 
vn -1.0341130485562108e-13 0.999997615814209 0.002184694167226553 
vn -1.0341130485562108e-13 0.999997615814209 0.002184694167226553 
vn -1.0341130485562108e-13 0.999997615814209 0.002184694167226553 
vn -1.0341130485562108e-13 0.999997615814209 0.002184694167226553 
vt 0.5244760513305664 0.3972734808921814 
vt 0.3922785818576813 0.40154948830604553 
vt 0.5162976384162903 0.3417646586894989 
vt 0.3922785818576813 0.3417646586894989 
vt 0.5162976384162903 0.28300926089286804 
vt 0.3922785818576813 0.28300926089286804 
vt 0.5162976384162903 0.23209317028522491 
vt 0.3922785818576813 0.23209317028522491 
vt 0.3129356801509857 0.28300926089286804 
vt 0.3129356801509857 0.23209317028522491 
vt 0.5463258624076843 0.3417646586894989 
vt 0.5463258624076843 0.28300926089286804 
vt 0.3129356801509857 0.3417646586894989 
vt 0.17292597889900208 0.3417646586894989 
vt 0.17939548194408417 0.28300926089286804 
vt 0.18501052260398865 0.23209317028522491 
vt 0.2020997554063797 0.013225273229181767 
vt 0.09382721781730652 0.09011410176753998 
vt 0.02949843555688858 0.23209317028522491 
vt 0.0170477032661438 0.28300926089286804 
vt 0.002765981713309884 0.3417646586894989 
vt 0.0000805296003818512 0.40154948830604553 
vt 0.17182739078998566 0.40154948830604553 
vt 0.07393045723438263 0.5607909560203552 
vt 0.19233447313308716 0.5164472460746765 
vt 0.3129356801509857 0.40154948830604553 
vt 0.3129356801509857 0.5164472460746765 
vt 0.3922785818576813 0.5164472460746765 
vt 0.3065882623195648 0.023994460701942444 
vt 0.5463258624076843 0.23209317028522491 
vt 0.5171521306037903 0.0512341670691967 
vt 0.566832959651947 0.05479750409722328 
vt 0.6943919658660889 0.23209317028522491 
vt 0.6943919658660889 0.07966165244579315 
vt 0.7516409158706665 0.07966165244579315 
vt 0.7036689519882202 0.23209317028522491 
vt 0.8652843236923218 0.12360943853855133 
vt 0.8392843008041382 0.23209317028522491 
vt 0.9999231100082397 0.12360943853855133 
vt 0.9999231100082397 0.23209317028522491 
vt 0.8392843008041382 0.28300926089286804 
vt 0.9999231100082397 0.28300926089286804 
vt 0.9999231100082397 0.3305995464324951 
vt 0.8392843008041382 0.3305995464324951 
vt 0.9999231100082397 0.3782690465450287 
vt 0.8392843008041382 0.3782690465450287 
vt 0.9999231100082397 0.42585936188697815 
vt 0.8392843008041382 0.42585936188697815 
vt 0.7710493803024292 0.3872169852256775 
vt 0.7656784653663635 0.33614251017570496 
vt 0.769706666469574 0.28300926089286804 
vt 0.6943919658660889 0.28300926089286804 
vt 0.6919506192207336 0.3417646586894989 
vt 0.702692449092865 0.3961648941040039 
vt 0.5580441951751709 0.3961648941040039 
vt 0.3922785818576813 0.23209317028522491 
vt 0.5162976384162903 0.23209317028522491 
vt 0.42352747917175293 0.0000805296003818512 
vt 0.5171521306037903 0.0512341670691967 
vt 0.3129356801509857 0.23209317028522491 
vt 0.3922785818576813 0.23209317028522491 
vt 0.3065882623195648 0.023994460701942444 
vt 0.42352747917175293 0.0000805296003818512 
vt 0.7299131155014038 0.5344222784042358 
vt 0.5878283381462097 0.5187435746192932 
vt 0.7299131155014038 0.6486865282058716 
vt 0.5878283381462097 0.6486865282058716 
vt 0.5878283381462097 0.5187435746192932 
vt 0.7299131155014038 0.5344222784042358 
vt 0.5580441951751709 0.3961648941040039 
vt 0.702692449092865 0.3961648941040039 
vt 0.5580441951751709 0.3961648941040039 
vt 0.5244760513305664 0.3972734808921814 
vt 0.5878283381462097 0.5187435746192932 
vt 0.5482789278030396 0.5183476805686951 
vt 0.5244760513305664 0.3972734808921814 
vt 0.3922785818576813 0.40154948830604553 
vt 0.5482789278030396 0.5183476805686951 
vt 0.3922785818576813 0.5164472460746765 
vt 0.5580441951751709 0.3961648941040039 
vt 0.5463258624076843 0.3417646586894989 
vt 0.5244760513305664 0.3972734808921814 
vt 0.5162976384162903 0.3417646586894989 
vt 0.8392843008041382 0.3782690465450287 
vt 0.7710493803024292 0.3872169852256775 
vt 0.8392843008041382 0.42585936188697815 
vt 0.784598708152771 0.48018038272857666 
vt 0.7656784653663635 0.33614251017570496 
vt 0.6919506192207336 0.3417646586894989 
vt 0.7710493803024292 0.3872169852256775 
vt 0.702692449092865 0.3961648941040039 
vt 0.7710493803024292 0.3872169852256775 
vt 0.702692449092865 0.3961648941040039 
vt 0.784598708152771 0.48018038272857666 
vt 0.7299131155014038 0.5344222784042358 
s on 
f 1/1/1 2/2/2 3/3/3 
f 2/2/2 4/4/4 3/3/3 
f 3/3/3 4/4/4 5/5/5 
f 4/4/4 6/6/6 5/5/5 
f 5/5/5 6/6/6 7/7/7 
f 6/6/6 6/6/6 7/7/7 
f 7/7/7 6/6/6 8/8/8 
f 6/6/6 9/9/9 8/8/8 
f 8/8/8 9/9/9 10/10/10 
f 9/9/9 10/10/10 10/10/10 
f 10/10/10 10/10/10 3/3/3 
f 10/10/10 3/3/3 3/3/3 
f 3/3/3 3/3/3 11/11/11 
f 3/3/3 5/5/5 11/11/11 
f 11/11/11 5/5/5 12/12/12 
f 5/5/5 7/7/7 12/12/12 
f 12/12/12 7/7/7 7/7/7 
f 7/7/7 2/2/2 7/7/7 
f 7/7/7 2/2/2 2/2/2 
f 2/2/2 13/13/13 2/2/2 
f 2/2/2 13/13/13 4/4/4 
f 13/13/13 13/13/13 4/4/4 
f 4/4/4 13/13/13 6/6/6 
f 13/13/13 13/13/13 6/6/6 
f 6/6/6 13/13/13 9/9/9 
f 13/13/13 14/14/14 9/9/9 
f 9/9/9 14/14/14 9/9/9 
f 14/14/14 15/15/15 9/9/9 
f 9/9/9 15/15/15 10/10/10 
f 15/15/15 16/16/16 10/10/10 
f 10/10/10 16/16/16 17/17/17 
f 16/16/16 16/16/16 17/17/17 
f 17/17/17 16/16/16 18/18/18 
f 16/16/16 16/16/16 18/18/18 
f 18/18/18 16/16/16 19/19/19 
f 16/16/16 16/16/16 19/19/19 
f 19/19/19 16/16/16 20/20/20 
f 16/16/16 15/15/15 20/20/20 
f 20/20/20 15/15/15 21/21/21 
f 15/15/15 14/14/14 21/21/21 
f 21/21/21 14/14/14 22/22/22 
f 14/14/14 23/23/23 22/22/22 
f 22/22/22 23/23/23 24/24/24 
f 23/23/23 23/23/23 24/24/24 
f 24/24/24 23/23/23 25/25/25 
f 23/23/23 26/26/26 25/25/25 
f 25/25/25 26/26/26 27/27/27 
f 26/26/26 26/26/26 27/27/27 
f 27/27/27 26/26/26 28/28/28 
f 26/26/26 26/26/26 28/28/28 
f 28/28/28 26/26/26 2/2/2 
f 26/26/26 26/26/26 2/2/2 
f 2/2/2 26/26/26 13/13/13 
f 26/26/26 23/23/23 13/13/13 
f 13/13/13 23/23/23 14/14/14 
f 23/23/23 14/14/14 14/14/14 
f 14/14/14 14/14/14 10/10/10 
f 14/14/14 10/10/10 10/10/10 
f 10/10/10 10/10/10 29/29/29 
f 10/10/10 17/17/17 29/29/29 
f 29/29/29 17/17/17 17/17/17 
f 17/17/17 12/12/12 17/17/17 
f 17/17/17 12/12/12 12/12/12 
f 12/12/12 7/7/7 12/12/12 
f 12/12/12 7/7/7 30/30/30 
f 7/7/7 31/31/31 30/30/30 
f 30/30/30 31/31/31 30/30/30 
f 31/31/31 32/32/32 30/30/30 
f 30/30/30 32/32/32 33/33/33 
f 32/32/32 34/34/34 33/33/33 
f 33/33/33 34/34/34 33/33/33 
f 34/34/34 35/35/35 33/33/33 
f 33/33/33 35/35/35 36/36/36 
f 35/35/35 37/37/37 36/36/36 
f 36/36/36 37/37/37 38/38/38 
f 37/37/37 39/39/39 38/38/38 
f 38/38/38 39/39/39 38/38/38 
f 39/39/39 40/40/40 38/38/38 
f 38/38/38 40/40/40 41/41/41 
f 40/40/40 42/42/42 41/41/41 
f 41/41/41 42/42/42 41/41/41 
f 42/42/42 43/43/43 41/41/41 
f 41/41/41 43/43/43 44/44/44 
f 43/43/43 45/45/45 44/44/44 
f 44/44/44 45/45/45 46/46/46 
f 45/45/45 47/47/47 46/46/46 
f 46/46/46 47/47/47 48/48/48 
f 47/47/47 48/48/48 48/48/48 
f 48/48/48 48/48/48 49/49/49 
f 48/48/48 49/49/49 49/49/49 
f 49/49/49 49/49/49 46/46/46 
f 49/49/49 50/50/50 46/46/46 
f 46/46/46 50/50/50 44/44/44 
f 50/50/50 50/50/50 44/44/44 
f 44/44/44 50/50/50 41/41/41 
f 50/50/50 51/51/51 41/41/41 
f 41/41/41 51/51/51 38/38/38 
f 51/51/51 51/51/51 38/38/38 
f 38/38/38 51/51/51 36/36/36 
f 51/51/51 52/52/52 36/36/36 
f 36/36/36 52/52/52 33/33/33 
f 52/52/52 52/52/52 33/33/33 
f 33/33/33 52/52/52 30/30/30 
f 52/52/52 52/52/52 30/30/30 
f 30/30/30 52/52/52 12/12/12 
f 52/52/52 52/52/52 12/12/12 
f 12/12/12 52/52/52 11/11/11 
f 52/52/52 53/53/53 11/11/11 
f 11/11/11 53/53/53 11/11/11 
f 53/53/53 54/54/54 11/11/11 
f 11/11/11 54/54/54 55/55/55 
f 54/54/54 55/55/55 55/55/55 
f 55/55/55 55/55/55 52/52/52 
f 55/55/55 52/52/52 52/52/52 
f 52/52/52 52/52/52 53/53/53 
f 52/52/52 51/51/51 53/53/53 
f 53/53/53 51/51/51 50/50/50 
f 51/51/51 50/50/50 50/50/50 
f 50/50/50 50/50/50 56/56/56 
f 50/50/50 56/56/56 56/56/56 
f 56/56/56 56/56/56 57/57/57 
f 56/56/56 58/58/58 57/57/57 
f 57/57/57 58/58/58 59/59/59 
f 58/58/58 59/59/59 59/59/59 
f 59/59/59 59/59/59 60/60/60 
f 59/59/59 60/60/60 60/60/60 
f 60/60/60 60/60/60 61/61/61 
f 60/60/60 62/62/62 61/61/61 
f 61/61/61 62/62/62 63/63/63 
f 62/62/62 63/63/63 63/63/63 
f 63/63/63 63/63/63 64/64/64 
f 63/63/63 64/64/64 64/64/64 
f 64/64/64 64/64/64 65/65/65 
f 64/64/64 66/66/66 65/65/65 
f 65/65/65 66/66/66 67/67/67 
f 66/66/66 67/67/67 67/67/67 
f 67/67/67 67/67/67 68/68/68 
f 67/67/67 68/68/68 68/68/68 
f 68/68/68 68/68/68 69/69/69 
f 68/68/68 70/70/70 69/69/69 
f 69/69/69 70/70/70 71/71/71 
f 70/70/70 71/71/71 71/71/71 
f 71/71/71 71/71/71 72/72/72 
f 71/71/71 72/72/72 72/72/72 
f 72/72/72 72/72/72 73/73/73 
f 72/72/72 74/74/74 73/73/73 
f 73/73/73 74/74/74 75/75/75 
f 74/74/74 75/75/75 75/75/75 
f 75/75/75 75/75/75 76/76/76 
f 75/75/75 76/76/76 76/76/76 
f 76/76/76 76/76/76 77/77/77 
f 76/76/76 78/78/78 77/77/77 
f 77/77/77 78/78/78 79/79/79 
f 78/78/78 79/79/79 79/79/79 
f 79/79/79 79/79/79 80/80/80 
f 79/79/79 80/80/80 80/80/80 
f 80/80/80 80/80/80 81/81/81 
f 80/80/80 82/82/82 81/81/81 
f 81/81/81 82/82/82 83/83/83 
f 82/82/82 83/83/83 83/83/83 
f 83/83/83 83/83/83 84/84/84 
f 83/83/83 84/84/84 84/84/84 
f 84/84/84 84/84/84 85/85/85 
f 84/84/84 86/86/86 85/85/85 
f 85/85/85 86/86/86 87/87/87 
f 86/86/86 87/87/87 87/87/87 
f 87/87/87 87/87/87 88/88/88 
f 87/87/87 88/88/88 88/88/88 
f 88/88/88 88/88/88 89/89/89 
f 88/88/88 90/90/90 89/89/89 
f 89/89/89 90/90/90 91/91/91 
f 90/90/90 91/91/91 91/91/91 
f 91/91/91 91/91/91 92/92/92 
f 91/91/91 92/92/92 92/92/92 
f 92/92/92 92/92/92 93/93/93 
f 92/92/92 94/94/94 93/93/93 
f 93/93/93 94/94/94 95/95/95 

